<?xml version="1.0" encoding="utf-8" standalone="no"?>
<!DOCTYPE svg PUBLIC "-//W3C//DTD SVG 1.1//EN"
  "http://www.w3.org/Graphics/SVG/1.1/DTD/svg11.dtd">
<!-- Created with matplotlib (http://matplotlib.org/) -->
<svg height="432pt" version="1.1" viewBox="0 0 720 432" width="720pt" xmlns="http://www.w3.org/2000/svg" xmlns:xlink="http://www.w3.org/1999/xlink">
 <defs>
  <style type="text/css">
*{stroke-linecap:butt;stroke-linejoin:round;}
  </style>
 </defs>
 <g id="figure_1">
  <g id="patch_1">
   <path d="M 0 432 
L 720 432 
L 720 0 
L 0 0 
z
" style="fill:#ffffff;"/>
  </g>
  <g id="axes_1">
   <g id="patch_2">
    <path d="M 90 345.6 
L 648 345.6 
L 648 51.84 
L 90 51.84 
z
" style="fill:#ffffff;"/>
   </g>
   <g id="matplotlib.axis_1">
    <g id="xtick_1">
     <g id="line2d_1">
      <defs>
       <path d="M 0 0 
L 0 3.5 
" id="m3fbb7fdf6c" style="stroke:#000000;stroke-width:0.8;"/>
      </defs>
      <g>
       <use style="stroke:#000000;stroke-width:0.8;" x="90" xlink:href="#m3fbb7fdf6c" y="345.6"/>
      </g>
     </g>
     <g id="text_1">
      <!-- 2007-01 -->
      <defs>
       <path d="M 19.1875 8.296875 
L 53.609375 8.296875 
L 53.609375 0 
L 7.328125 0 
L 7.328125 8.296875 
Q 12.9375 14.109375 22.625 23.890625 
Q 32.328125 33.6875 34.8125 36.53125 
Q 39.546875 41.84375 41.421875 45.53125 
Q 43.3125 49.21875 43.3125 52.78125 
Q 43.3125 58.59375 39.234375 62.25 
Q 35.15625 65.921875 28.609375 65.921875 
Q 23.96875 65.921875 18.8125 64.3125 
Q 13.671875 62.703125 7.8125 59.421875 
L 7.8125 69.390625 
Q 13.765625 71.78125 18.9375 73 
Q 24.125 74.21875 28.421875 74.21875 
Q 39.75 74.21875 46.484375 68.546875 
Q 53.21875 62.890625 53.21875 53.421875 
Q 53.21875 48.921875 51.53125 44.890625 
Q 49.859375 40.875 45.40625 35.40625 
Q 44.1875 33.984375 37.640625 27.21875 
Q 31.109375 20.453125 19.1875 8.296875 
z
" id="DejaVuSans-32"/>
       <path d="M 31.78125 66.40625 
Q 24.171875 66.40625 20.328125 58.90625 
Q 16.5 51.421875 16.5 36.375 
Q 16.5 21.390625 20.328125 13.890625 
Q 24.171875 6.390625 31.78125 6.390625 
Q 39.453125 6.390625 43.28125 13.890625 
Q 47.125 21.390625 47.125 36.375 
Q 47.125 51.421875 43.28125 58.90625 
Q 39.453125 66.40625 31.78125 66.40625 
z
M 31.78125 74.21875 
Q 44.046875 74.21875 50.515625 64.515625 
Q 56.984375 54.828125 56.984375 36.375 
Q 56.984375 17.96875 50.515625 8.265625 
Q 44.046875 -1.421875 31.78125 -1.421875 
Q 19.53125 -1.421875 13.0625 8.265625 
Q 6.59375 17.96875 6.59375 36.375 
Q 6.59375 54.828125 13.0625 64.515625 
Q 19.53125 74.21875 31.78125 74.21875 
z
" id="DejaVuSans-30"/>
       <path d="M 8.203125 72.90625 
L 55.078125 72.90625 
L 55.078125 68.703125 
L 28.609375 0 
L 18.3125 0 
L 43.21875 64.59375 
L 8.203125 64.59375 
z
" id="DejaVuSans-37"/>
       <path d="M 4.890625 31.390625 
L 31.203125 31.390625 
L 31.203125 23.390625 
L 4.890625 23.390625 
z
" id="DejaVuSans-2d"/>
       <path d="M 12.40625 8.296875 
L 28.515625 8.296875 
L 28.515625 63.921875 
L 10.984375 60.40625 
L 10.984375 69.390625 
L 28.421875 72.90625 
L 38.28125 72.90625 
L 38.28125 8.296875 
L 54.390625 8.296875 
L 54.390625 0 
L 12.40625 0 
z
" id="DejaVuSans-31"/>
      </defs>
      <g transform="translate(52.775179 380.071846)rotate(-30)scale(0.1 -0.1)">
       <use xlink:href="#DejaVuSans-32"/>
       <use x="63.623047" xlink:href="#DejaVuSans-30"/>
       <use x="127.246094" xlink:href="#DejaVuSans-30"/>
       <use x="190.869141" xlink:href="#DejaVuSans-37"/>
       <use x="254.492188" xlink:href="#DejaVuSans-2d"/>
       <use x="290.576172" xlink:href="#DejaVuSans-30"/>
       <use x="354.199219" xlink:href="#DejaVuSans-31"/>
      </g>
     </g>
    </g>
    <g id="xtick_2">
     <g id="line2d_2">
      <g>
       <use style="stroke:#000000;stroke-width:0.8;" x="159.129363" xlink:href="#m3fbb7fdf6c" y="345.6"/>
      </g>
     </g>
     <g id="text_2">
      <!-- 2007-07 -->
      <g transform="translate(121.904543 380.071846)rotate(-30)scale(0.1 -0.1)">
       <use xlink:href="#DejaVuSans-32"/>
       <use x="63.623047" xlink:href="#DejaVuSans-30"/>
       <use x="127.246094" xlink:href="#DejaVuSans-30"/>
       <use x="190.869141" xlink:href="#DejaVuSans-37"/>
       <use x="254.492188" xlink:href="#DejaVuSans-2d"/>
       <use x="290.576172" xlink:href="#DejaVuSans-30"/>
       <use x="354.199219" xlink:href="#DejaVuSans-37"/>
      </g>
     </g>
    </g>
    <g id="xtick_3">
     <g id="line2d_3">
      <g>
       <use style="stroke:#000000;stroke-width:0.8;" x="229.404517" xlink:href="#m3fbb7fdf6c" y="345.6"/>
      </g>
     </g>
     <g id="text_3">
      <!-- 2008-01 -->
      <defs>
       <path d="M 31.78125 34.625 
Q 24.75 34.625 20.71875 30.859375 
Q 16.703125 27.09375 16.703125 20.515625 
Q 16.703125 13.921875 20.71875 10.15625 
Q 24.75 6.390625 31.78125 6.390625 
Q 38.8125 6.390625 42.859375 10.171875 
Q 46.921875 13.96875 46.921875 20.515625 
Q 46.921875 27.09375 42.890625 30.859375 
Q 38.875 34.625 31.78125 34.625 
z
M 21.921875 38.8125 
Q 15.578125 40.375 12.03125 44.71875 
Q 8.5 49.078125 8.5 55.328125 
Q 8.5 64.0625 14.71875 69.140625 
Q 20.953125 74.21875 31.78125 74.21875 
Q 42.671875 74.21875 48.875 69.140625 
Q 55.078125 64.0625 55.078125 55.328125 
Q 55.078125 49.078125 51.53125 44.71875 
Q 48 40.375 41.703125 38.8125 
Q 48.828125 37.15625 52.796875 32.3125 
Q 56.78125 27.484375 56.78125 20.515625 
Q 56.78125 9.90625 50.3125 4.234375 
Q 43.84375 -1.421875 31.78125 -1.421875 
Q 19.734375 -1.421875 13.25 4.234375 
Q 6.78125 9.90625 6.78125 20.515625 
Q 6.78125 27.484375 10.78125 32.3125 
Q 14.796875 37.15625 21.921875 38.8125 
z
M 18.3125 54.390625 
Q 18.3125 48.734375 21.84375 45.5625 
Q 25.390625 42.390625 31.78125 42.390625 
Q 38.140625 42.390625 41.71875 45.5625 
Q 45.3125 48.734375 45.3125 54.390625 
Q 45.3125 60.0625 41.71875 63.234375 
Q 38.140625 66.40625 31.78125 66.40625 
Q 25.390625 66.40625 21.84375 63.234375 
Q 18.3125 60.0625 18.3125 54.390625 
z
" id="DejaVuSans-38"/>
      </defs>
      <g transform="translate(192.179697 380.071846)rotate(-30)scale(0.1 -0.1)">
       <use xlink:href="#DejaVuSans-32"/>
       <use x="63.623047" xlink:href="#DejaVuSans-30"/>
       <use x="127.246094" xlink:href="#DejaVuSans-30"/>
       <use x="190.869141" xlink:href="#DejaVuSans-38"/>
       <use x="254.492188" xlink:href="#DejaVuSans-2d"/>
       <use x="290.576172" xlink:href="#DejaVuSans-30"/>
       <use x="354.199219" xlink:href="#DejaVuSans-31"/>
      </g>
     </g>
    </g>
    <g id="xtick_4">
     <g id="line2d_4">
      <g>
       <use style="stroke:#000000;stroke-width:0.8;" x="298.915811" xlink:href="#m3fbb7fdf6c" y="345.6"/>
      </g>
     </g>
     <g id="text_4">
      <!-- 2008-07 -->
      <g transform="translate(261.69099 380.071846)rotate(-30)scale(0.1 -0.1)">
       <use xlink:href="#DejaVuSans-32"/>
       <use x="63.623047" xlink:href="#DejaVuSans-30"/>
       <use x="127.246094" xlink:href="#DejaVuSans-30"/>
       <use x="190.869141" xlink:href="#DejaVuSans-38"/>
       <use x="254.492188" xlink:href="#DejaVuSans-2d"/>
       <use x="290.576172" xlink:href="#DejaVuSans-30"/>
       <use x="354.199219" xlink:href="#DejaVuSans-37"/>
      </g>
     </g>
    </g>
    <g id="xtick_5">
     <g id="line2d_5">
      <g>
       <use style="stroke:#000000;stroke-width:0.8;" x="369.190965" xlink:href="#m3fbb7fdf6c" y="345.6"/>
      </g>
     </g>
     <g id="text_5">
      <!-- 2009-01 -->
      <defs>
       <path d="M 10.984375 1.515625 
L 10.984375 10.5 
Q 14.703125 8.734375 18.5 7.8125 
Q 22.3125 6.890625 25.984375 6.890625 
Q 35.75 6.890625 40.890625 13.453125 
Q 46.046875 20.015625 46.78125 33.40625 
Q 43.953125 29.203125 39.59375 26.953125 
Q 35.25 24.703125 29.984375 24.703125 
Q 19.046875 24.703125 12.671875 31.3125 
Q 6.296875 37.9375 6.296875 49.421875 
Q 6.296875 60.640625 12.9375 67.421875 
Q 19.578125 74.21875 30.609375 74.21875 
Q 43.265625 74.21875 49.921875 64.515625 
Q 56.59375 54.828125 56.59375 36.375 
Q 56.59375 19.140625 48.40625 8.859375 
Q 40.234375 -1.421875 26.421875 -1.421875 
Q 22.703125 -1.421875 18.890625 -0.6875 
Q 15.09375 0.046875 10.984375 1.515625 
z
M 30.609375 32.421875 
Q 37.25 32.421875 41.125 36.953125 
Q 45.015625 41.5 45.015625 49.421875 
Q 45.015625 57.28125 41.125 61.84375 
Q 37.25 66.40625 30.609375 66.40625 
Q 23.96875 66.40625 20.09375 61.84375 
Q 16.21875 57.28125 16.21875 49.421875 
Q 16.21875 41.5 20.09375 36.953125 
Q 23.96875 32.421875 30.609375 32.421875 
z
" id="DejaVuSans-39"/>
      </defs>
      <g transform="translate(331.966144 380.071846)rotate(-30)scale(0.1 -0.1)">
       <use xlink:href="#DejaVuSans-32"/>
       <use x="63.623047" xlink:href="#DejaVuSans-30"/>
       <use x="127.246094" xlink:href="#DejaVuSans-30"/>
       <use x="190.869141" xlink:href="#DejaVuSans-39"/>
       <use x="254.492188" xlink:href="#DejaVuSans-2d"/>
       <use x="290.576172" xlink:href="#DejaVuSans-30"/>
       <use x="354.199219" xlink:href="#DejaVuSans-31"/>
      </g>
     </g>
    </g>
    <g id="xtick_6">
     <g id="line2d_6">
      <g>
       <use style="stroke:#000000;stroke-width:0.8;" x="438.320329" xlink:href="#m3fbb7fdf6c" y="345.6"/>
      </g>
     </g>
     <g id="text_6">
      <!-- 2009-07 -->
      <g transform="translate(401.095508 380.071846)rotate(-30)scale(0.1 -0.1)">
       <use xlink:href="#DejaVuSans-32"/>
       <use x="63.623047" xlink:href="#DejaVuSans-30"/>
       <use x="127.246094" xlink:href="#DejaVuSans-30"/>
       <use x="190.869141" xlink:href="#DejaVuSans-39"/>
       <use x="254.492188" xlink:href="#DejaVuSans-2d"/>
       <use x="290.576172" xlink:href="#DejaVuSans-30"/>
       <use x="354.199219" xlink:href="#DejaVuSans-37"/>
      </g>
     </g>
    </g>
    <g id="xtick_7">
     <g id="line2d_7">
      <g>
       <use style="stroke:#000000;stroke-width:0.8;" x="508.595483" xlink:href="#m3fbb7fdf6c" y="345.6"/>
      </g>
     </g>
     <g id="text_7">
      <!-- 2010-01 -->
      <g transform="translate(471.370662 380.071846)rotate(-30)scale(0.1 -0.1)">
       <use xlink:href="#DejaVuSans-32"/>
       <use x="63.623047" xlink:href="#DejaVuSans-30"/>
       <use x="127.246094" xlink:href="#DejaVuSans-31"/>
       <use x="190.869141" xlink:href="#DejaVuSans-30"/>
       <use x="254.492188" xlink:href="#DejaVuSans-2d"/>
       <use x="290.576172" xlink:href="#DejaVuSans-30"/>
       <use x="354.199219" xlink:href="#DejaVuSans-31"/>
      </g>
     </g>
    </g>
    <g id="xtick_8">
     <g id="line2d_8">
      <g>
       <use style="stroke:#000000;stroke-width:0.8;" x="577.724846" xlink:href="#m3fbb7fdf6c" y="345.6"/>
      </g>
     </g>
     <g id="text_8">
      <!-- 2010-07 -->
      <g transform="translate(540.500025 380.071846)rotate(-30)scale(0.1 -0.1)">
       <use xlink:href="#DejaVuSans-32"/>
       <use x="63.623047" xlink:href="#DejaVuSans-30"/>
       <use x="127.246094" xlink:href="#DejaVuSans-31"/>
       <use x="190.869141" xlink:href="#DejaVuSans-30"/>
       <use x="254.492188" xlink:href="#DejaVuSans-2d"/>
       <use x="290.576172" xlink:href="#DejaVuSans-30"/>
       <use x="354.199219" xlink:href="#DejaVuSans-37"/>
      </g>
     </g>
    </g>
    <g id="xtick_9">
     <g id="line2d_9">
      <g>
       <use style="stroke:#000000;stroke-width:0.8;" x="648" xlink:href="#m3fbb7fdf6c" y="345.6"/>
      </g>
     </g>
     <g id="text_9">
      <!-- 2011-01 -->
      <g transform="translate(610.775179 380.071846)rotate(-30)scale(0.1 -0.1)">
       <use xlink:href="#DejaVuSans-32"/>
       <use x="63.623047" xlink:href="#DejaVuSans-30"/>
       <use x="127.246094" xlink:href="#DejaVuSans-31"/>
       <use x="190.869141" xlink:href="#DejaVuSans-31"/>
       <use x="254.492188" xlink:href="#DejaVuSans-2d"/>
       <use x="290.576172" xlink:href="#DejaVuSans-30"/>
       <use x="354.199219" xlink:href="#DejaVuSans-31"/>
      </g>
     </g>
    </g>
   </g>
   <g id="matplotlib.axis_2">
    <g id="ytick_1">
     <g id="line2d_10">
      <defs>
       <path d="M 0 0 
L -3.5 0 
" id="me0202e6f2c" style="stroke:#000000;stroke-width:0.8;"/>
      </defs>
      <g>
       <use style="stroke:#000000;stroke-width:0.8;" x="90" xlink:href="#me0202e6f2c" y="345.6"/>
      </g>
     </g>
     <g id="text_10">
      <!-- 600 -->
      <defs>
       <path d="M 33.015625 40.375 
Q 26.375 40.375 22.484375 35.828125 
Q 18.609375 31.296875 18.609375 23.390625 
Q 18.609375 15.53125 22.484375 10.953125 
Q 26.375 6.390625 33.015625 6.390625 
Q 39.65625 6.390625 43.53125 10.953125 
Q 47.40625 15.53125 47.40625 23.390625 
Q 47.40625 31.296875 43.53125 35.828125 
Q 39.65625 40.375 33.015625 40.375 
z
M 52.59375 71.296875 
L 52.59375 62.3125 
Q 48.875 64.0625 45.09375 64.984375 
Q 41.3125 65.921875 37.59375 65.921875 
Q 27.828125 65.921875 22.671875 59.328125 
Q 17.53125 52.734375 16.796875 39.40625 
Q 19.671875 43.65625 24.015625 45.921875 
Q 28.375 48.1875 33.59375 48.1875 
Q 44.578125 48.1875 50.953125 41.515625 
Q 57.328125 34.859375 57.328125 23.390625 
Q 57.328125 12.15625 50.6875 5.359375 
Q 44.046875 -1.421875 33.015625 -1.421875 
Q 20.359375 -1.421875 13.671875 8.265625 
Q 6.984375 17.96875 6.984375 36.375 
Q 6.984375 53.65625 15.1875 63.9375 
Q 23.390625 74.21875 37.203125 74.21875 
Q 40.921875 74.21875 44.703125 73.484375 
Q 48.484375 72.75 52.59375 71.296875 
z
" id="DejaVuSans-36"/>
      </defs>
      <g transform="translate(63.9125 349.399219)scale(0.1 -0.1)">
       <use xlink:href="#DejaVuSans-36"/>
       <use x="63.623047" xlink:href="#DejaVuSans-30"/>
       <use x="127.246094" xlink:href="#DejaVuSans-30"/>
      </g>
     </g>
    </g>
    <g id="ytick_2">
     <g id="line2d_11">
      <g>
       <use style="stroke:#000000;stroke-width:0.8;" x="90" xlink:href="#me0202e6f2c" y="296.64"/>
      </g>
     </g>
     <g id="text_11">
      <!-- 800 -->
      <g transform="translate(63.9125 300.439219)scale(0.1 -0.1)">
       <use xlink:href="#DejaVuSans-38"/>
       <use x="63.623047" xlink:href="#DejaVuSans-30"/>
       <use x="127.246094" xlink:href="#DejaVuSans-30"/>
      </g>
     </g>
    </g>
    <g id="ytick_3">
     <g id="line2d_12">
      <g>
       <use style="stroke:#000000;stroke-width:0.8;" x="90" xlink:href="#me0202e6f2c" y="247.68"/>
      </g>
     </g>
     <g id="text_12">
      <!-- 1000 -->
      <g transform="translate(57.55 251.479219)scale(0.1 -0.1)">
       <use xlink:href="#DejaVuSans-31"/>
       <use x="63.623047" xlink:href="#DejaVuSans-30"/>
       <use x="127.246094" xlink:href="#DejaVuSans-30"/>
       <use x="190.869141" xlink:href="#DejaVuSans-30"/>
      </g>
     </g>
    </g>
    <g id="ytick_4">
     <g id="line2d_13">
      <g>
       <use style="stroke:#000000;stroke-width:0.8;" x="90" xlink:href="#me0202e6f2c" y="198.72"/>
      </g>
     </g>
     <g id="text_13">
      <!-- 1200 -->
      <g transform="translate(57.55 202.519219)scale(0.1 -0.1)">
       <use xlink:href="#DejaVuSans-31"/>
       <use x="63.623047" xlink:href="#DejaVuSans-32"/>
       <use x="127.246094" xlink:href="#DejaVuSans-30"/>
       <use x="190.869141" xlink:href="#DejaVuSans-30"/>
      </g>
     </g>
    </g>
    <g id="ytick_5">
     <g id="line2d_14">
      <g>
       <use style="stroke:#000000;stroke-width:0.8;" x="90" xlink:href="#me0202e6f2c" y="149.76"/>
      </g>
     </g>
     <g id="text_14">
      <!-- 1400 -->
      <defs>
       <path d="M 37.796875 64.3125 
L 12.890625 25.390625 
L 37.796875 25.390625 
z
M 35.203125 72.90625 
L 47.609375 72.90625 
L 47.609375 25.390625 
L 58.015625 25.390625 
L 58.015625 17.1875 
L 47.609375 17.1875 
L 47.609375 0 
L 37.796875 0 
L 37.796875 17.1875 
L 4.890625 17.1875 
L 4.890625 26.703125 
z
" id="DejaVuSans-34"/>
      </defs>
      <g transform="translate(57.55 153.559219)scale(0.1 -0.1)">
       <use xlink:href="#DejaVuSans-31"/>
       <use x="63.623047" xlink:href="#DejaVuSans-34"/>
       <use x="127.246094" xlink:href="#DejaVuSans-30"/>
       <use x="190.869141" xlink:href="#DejaVuSans-30"/>
      </g>
     </g>
    </g>
    <g id="ytick_6">
     <g id="line2d_15">
      <g>
       <use style="stroke:#000000;stroke-width:0.8;" x="90" xlink:href="#me0202e6f2c" y="100.8"/>
      </g>
     </g>
     <g id="text_15">
      <!-- 1600 -->
      <g transform="translate(57.55 104.599219)scale(0.1 -0.1)">
       <use xlink:href="#DejaVuSans-31"/>
       <use x="63.623047" xlink:href="#DejaVuSans-36"/>
       <use x="127.246094" xlink:href="#DejaVuSans-30"/>
       <use x="190.869141" xlink:href="#DejaVuSans-30"/>
      </g>
     </g>
    </g>
    <g id="ytick_7">
     <g id="line2d_16">
      <g>
       <use style="stroke:#000000;stroke-width:0.8;" x="90" xlink:href="#me0202e6f2c" y="51.84"/>
      </g>
     </g>
     <g id="text_16">
      <!-- 1800 -->
      <g transform="translate(57.55 55.639219)scale(0.1 -0.1)">
       <use xlink:href="#DejaVuSans-31"/>
       <use x="63.623047" xlink:href="#DejaVuSans-38"/>
       <use x="127.246094" xlink:href="#DejaVuSans-30"/>
       <use x="190.869141" xlink:href="#DejaVuSans-30"/>
      </g>
     </g>
    </g>
   </g>
   <g id="line2d_17">
    <path clip-path="url(#pe79e35d3c7)" d="M 88.854209 145.28016 
L 90.76386 145.69632 
L 91.145791 145.270368 
L 91.527721 147.382992 
L 92.673511 146.616768 
L 93.055441 146.795472 
L 93.437372 146.12472 
L 94.201232 142.237296 
L 95.728953 141.95088 
L 96.110883 142.264224 
L 96.492813 143.304624 
L 96.874743 142.2936 
L 98.020534 144.14184 
L 98.402464 142.908048 
L 98.784394 139.936176 
L 99.166324 143.90928 
L 99.548255 144.330336 
L 100.694045 144.712224 
L 101.839836 138.513888 
L 102.221766 137.914128 
L 103.367556 138.256848 
L 103.749487 138.0096 
L 104.131417 137.515104 
L 104.513347 137.933712 
L 104.895277 140.442912 
L 106.041068 141.591024 
L 106.804928 136.22256 
L 107.186858 135.852912 
L 107.568789 136.163808 
L 109.096509 135.150336 
L 109.478439 135.652176 
L 109.86037 135.958176 
L 110.2423 137.228688 
L 111.38809 137.674224 
L 111.770021 149.995008 
L 112.151951 148.090464 
L 112.533881 148.983984 
L 112.915811 152.900784 
L 114.061602 156.095424 
L 114.443532 150.883632 
L 114.825462 151.725744 
L 115.207392 149.297328 
L 115.589322 149.064768 
L 116.735113 148.14432 
L 117.117043 155.15784 
L 117.498973 152.900784 
L 117.880903 151.649856 
L 118.262834 152.95464 
L 119.408624 149.255712 
L 119.790554 147.081888 
L 120.172485 141.182208 
L 120.554415 141.304608 
L 120.936345 140.920272 
L 122.082136 140.58 
L 122.845996 145.542096 
L 123.227926 144.244656 
L 123.609856 144.653472 
L 124.755647 143.75016 
L 125.137577 140.513904 
L 125.519507 140.122224 
L 125.901437 139.047552 
L 127.429158 138.839472 
L 127.811088 137.914128 
L 128.193018 140.244624 
L 128.574949 138.05856 
L 130.102669 133.032816 
L 130.4846 132.261696 
L 130.86653 132.012 
L 131.24846 132.445296 
L 131.63039 129.11112 
L 132.776181 129.948336 
L 133.158111 130.075632 
L 133.540041 126.401184 
L 133.921971 126.6876 
L 134.303901 126.731664 
L 135.449692 129.595824 
L 135.831622 128.63376 
L 136.213552 126.278784 
L 136.595483 124.694928 
L 136.977413 123.904224 
L 138.123203 122.959296 
L 138.505133 123.390144 
L 138.887064 122.200416 
L 139.268994 127.368144 
L 139.650924 123.84792 
L 140.796715 124.50888 
L 141.178645 124.988688 
L 141.560575 121.818528 
L 141.942505 122.1588 
L 142.324435 119.7108 
L 143.470226 119.13552 
L 143.852156 119.375424 
L 144.234086 119.825856 
L 144.616016 123.441552 
L 144.997947 121.429296 
L 146.525667 120.846672 
L 146.907598 117.879696 
L 147.289528 117.784224 
L 147.671458 116.383968 
L 148.817248 115.688736 
L 149.199179 117.70344 
L 149.581109 121.025376 
L 149.963039 127.551744 
L 150.344969 123.402384 
L 151.49076 123.047424 
L 151.87269 126.9936 
L 152.25462 121.443984 
L 152.63655 119.656944 
L 153.01848 117.223632 
L 154.164271 117.67896 
L 154.546201 117.03024 
L 154.928131 122.136768 
L 155.310062 119.847888 
L 155.691992 124.653312 
L 156.837782 125.833248 
L 157.219713 127.020528 
L 157.601643 123.727968 
L 157.983573 123.882192 
L 158.365503 124.45992 
L 159.893224 119.191824 
L 160.657084 119.06208 
L 161.039014 117.828288 
L 162.184805 117.48312 
L 162.566735 122.802624 
L 162.948665 120.687552 
L 163.330595 113.60304 
L 163.712526 112.428 
L 164.858316 113.157504 
L 165.240246 113.194224 
L 165.622177 113.977584 
L 166.004107 112.286016 
L 166.386037 116.93232 
L 167.531828 115.103664 
L 167.913758 122.577408 
L 168.295688 120.851568 
L 168.677618 129.524832 
L 169.059548 135.32904 
L 170.205339 131.666832 
L 170.587269 136.229904 
L 170.969199 133.649712 
L 171.351129 132.08544 
L 171.73306 141.666912 
L 173.26078 130.981392 
L 173.64271 125.894448 
L 174.024641 136.763568 
L 174.406571 136.628928 
L 175.552361 136.805184 
L 176.316222 148.11984 
L 176.698152 147.001104 
L 177.080082 138.513888 
L 178.225873 138.60936 
L 178.607803 138.225024 
L 178.989733 134.075664 
L 179.371663 134.46 
L 179.753593 130.330224 
L 180.899384 133.409808 
L 181.281314 141.838272 
L 181.663244 134.151552 
L 182.045175 135.649728 
L 182.427105 131.647248 
L 183.954825 127.869984 
L 184.336756 132.063408 
L 184.718686 130.53096 
L 185.100616 136.65096 
L 186.246407 137.10384 
L 186.628337 132.259248 
L 187.010267 132.242112 
L 187.392197 129.20904 
L 187.774127 129.1356 
L 188.919918 130.99608 
L 189.301848 120.437856 
L 189.683778 118.173456 
L 190.065708 120.69 
L 190.447639 118.9764 
L 191.593429 120.939696 
L 191.975359 121.066992 
L 192.73922 117.598176 
L 193.12115 118.7316 
L 194.26694 113.764608 
L 194.648871 113.864976 
L 195.030801 115.588368 
L 195.412731 114.792768 
L 195.794661 111.181968 
L 196.940452 112.408416 
L 197.322382 109.33128 
L 197.704312 109.987344 
L 198.086242 111.960432 
L 198.468172 110.15136 
L 199.613963 113.355792 
L 199.995893 115.847856 
L 200.377823 115.184448 
L 200.759754 115.468416 
L 201.141684 125.125776 
L 202.287474 123.730416 
L 202.669405 120.484368 
L 203.051335 121.392576 
L 203.433265 121.75488 
L 203.815195 116.643456 
L 204.960986 115.248096 
L 205.342916 117.686304 
L 205.724846 113.191776 
L 206.106776 123.213888 
L 206.488706 122.91768 
L 207.634497 124.748784 
L 208.016427 120.317904 
L 208.398357 131.248224 
L 208.780287 131.456304 
L 209.162218 136.61424 
L 210.308008 140.168736 
L 210.689938 129.91896 
L 211.071869 132.482016 
L 211.453799 137.23848 
L 211.835729 135.380448 
L 212.98152 141.615504 
L 213.36345 140.04144 
L 213.74538 145.654704 
L 214.50924 139.79664 
L 215.655031 147.992544 
L 216.036961 142.849296 
L 216.418891 132.863904 
L 216.800821 132.692544 
L 217.182752 129.896928 
L 218.328542 132.031584 
L 218.710472 134.389008 
L 219.474333 123.483168 
L 219.856263 124.139232 
L 221.002053 121.372992 
L 221.383984 130.75128 
L 221.765914 128.562768 
L 222.147844 128.117232 
L 222.529774 133.12584 
L 223.675565 138.52368 
L 224.057495 136.300896 
L 224.439425 136.7856 
L 224.821355 135.042624 
L 225.203285 129.084192 
L 226.349076 126.14904 
L 227.112936 125.852832 
L 227.494867 131.089104 
L 227.876797 130.545648 
L 229.022587 133.025472 
L 229.786448 138.215232 
L 230.168378 138.215232 
L 230.550308 146.912976 
L 231.696099 145.799136 
L 232.078029 152.161488 
L 232.459959 147.524976 
L 232.841889 144.783216 
L 233.223819 149.510304 
L 234.36961 145.782 
L 234.75154 154.42344 
L 235.13347 156.32064 
L 235.5154 166.1004 
L 235.897331 168.073488 
L 237.425051 171.6696 
L 237.806982 164.79072 
L 238.188912 161.493264 
L 238.570842 166.746672 
L 240.098563 158.98896 
L 240.480493 160.577712 
L 241.244353 150.881184 
L 242.390144 154.455264 
L 242.772074 165.270528 
L 243.154004 167.76504 
L 243.535934 165.204432 
L 243.917864 166.580208 
L 245.063655 164.660976 
L 245.445585 162.279072 
L 245.827515 157.786992 
L 246.209446 162.279072 
L 246.591376 162.002448 
L 248.119097 162.298656 
L 248.501027 159.544656 
L 248.882957 163.828656 
L 249.264887 161.238672 
L 250.410678 156.66336 
L 250.792608 154.340208 
L 251.174538 154.651104 
L 251.556468 157.671936 
L 251.938398 166.741776 
L 253.084189 166.567968 
L 253.466119 167.6916 
L 253.848049 165.99024 
L 254.229979 173.177568 
L 254.61191 175.863024 
L 255.7577 180.759024 
L 256.13963 169.18488 
L 256.521561 172.093104 
L 256.903491 170.450496 
L 257.285421 177.143328 
L 258.431211 179.96832 
L 258.813142 166.714848 
L 259.195072 174.626784 
L 259.577002 167.015952 
L 261.104723 162.029376 
L 261.486653 161.268048 
L 261.868583 164.171376 
L 262.250513 167.933952 
L 262.632444 170.514144 
L 263.778234 168.68304 
L 264.160164 157.059936 
L 264.542094 157.708656 
L 264.924025 157.272912 
L 265.305955 157.00608 
L 266.451745 156.482208 
L 266.833676 158.195808 
L 267.215606 160.900848 
L 267.597536 159.41736 
L 267.979466 166.203216 
L 269.125257 167.307264 
L 269.507187 165.811536 
L 269.889117 158.398992 
L 270.271047 158.190912 
L 270.652977 152.127216 
L 271.798768 152.655984 
L 272.180698 155.649888 
L 272.562628 154.673136 
L 273.326489 150.288768 
L 274.472279 150.648624 
L 275.23614 153.287568 
L 275.61807 147.473568 
L 276 146.35728 
L 277.145791 147.926448 
L 277.527721 145.289952 
L 277.909651 151.578864 
L 278.291581 150.327936 
L 278.673511 152.629056 
L 279.819302 148.883616 
L 280.201232 149.015808 
L 280.583162 147.640032 
L 280.965092 143.990064 
L 281.347023 143.55432 
L 282.492813 143.240976 
L 282.874743 146.47968 
L 283.256674 152.034192 
L 283.638604 151.14312 
L 284.020534 155.652336 
L 285.548255 153.34632 
L 285.930185 152.002368 
L 286.312115 150.185952 
L 286.694045 149.666976 
L 287.839836 153.267984 
L 288.221766 155.23128 
L 288.603696 155.34144 
L 288.985626 148.76856 
L 289.367556 159.385536 
L 290.513347 159.121152 
L 290.895277 159.933888 
L 291.277207 165.552048 
L 291.659138 164.479824 
L 292.041068 159.544656 
L 293.186858 159.517728 
L 293.568789 161.772336 
L 293.950719 164.984112 
L 294.332649 163.755216 
L 294.714579 169.850736 
L 295.86037 169.8336 
L 296.2423 170.741808 
L 296.62423 168.861744 
L 297.00616 178.36488 
L 297.38809 179.532576 
L 298.533881 179.136 
L 298.915811 177.934032 
L 299.297741 183.659904 
L 299.679671 183.32208 
L 301.207392 185.914512 
L 301.589322 180.67824 
L 301.971253 187.779888 
L 302.353183 185.650128 
L 302.735113 189.052848 
L 303.880903 191.79216 
L 304.262834 195.070032 
L 304.644764 187.615872 
L 305.026694 183.953664 
L 305.408624 183.865536 
L 306.554415 184.032 
L 306.936345 179.8704 
L 307.318275 178.599888 
L 307.700205 185.858208 
L 308.082136 184.580352 
L 309.227926 190.306224 
L 309.991786 178.093152 
L 310.373717 182.225376 
L 310.755647 183.956112 
L 311.901437 186.722352 
L 312.283368 177.941376 
L 312.665298 176.886288 
L 313.047228 182.546064 
L 313.429158 175.140864 
L 314.574949 172.937664 
L 314.956879 176.788368 
L 315.338809 177.708816 
L 316.102669 174.68064 
L 317.24846 179.47872 
L 317.63039 182.394288 
L 318.01232 180.472608 
L 318.394251 179.694144 
L 318.776181 176.14944 
L 319.921971 182.357568 
L 320.303901 181.214352 
L 320.685832 178.729632 
L 321.067762 174.073536 
L 321.449692 178.443216 
L 322.977413 179.728416 
L 323.359343 180.364896 
L 323.741273 189.704016 
L 324.123203 188.362512 
L 325.268994 182.125008 
L 325.650924 192.719952 
L 326.032854 190.876608 
L 326.414784 186.71256 
L 326.796715 186.06384 
L 327.942505 200.50704 
L 328.324435 195.39072 
L 328.706366 209.395728 
L 329.470226 185.236416 
L 330.997947 201.603744 
L 331.379877 202.179024 
L 331.761807 196.472736 
L 332.143737 195.471504 
L 333.289528 221.628384 
L 333.671458 206.955072 
L 334.053388 208.252512 
L 334.435318 219.704256 
L 335.963039 233.753328 
L 336.344969 248.602896 
L 336.726899 251.366688 
L 337.10883 269.731584 
L 337.49076 272.350944 
L 338.63655 246.85992 
L 339.01848 248.167152 
L 339.400411 270.240768 
L 339.782341 260.793936 
L 340.164271 262.23336 
L 341.310062 251.25408 
L 341.691992 258.68376 
L 342.073922 272.948256 
L 342.455852 270.174672 
L 342.837782 277.846704 
L 343.983573 284.664384 
L 344.365503 262.243152 
L 344.747433 264.793968 
L 345.129363 258.918768 
L 345.511294 255.33 
L 346.657084 255.92976 
L 347.039014 246.2724 
L 347.802875 270.965376 
L 348.184805 264.573648 
L 349.330595 267.457392 
L 349.712526 272.41704 
L 350.094456 283.83696 
L 350.476386 269.396208 
L 350.858316 278.698608 
L 352.004107 284.2164 
L 352.386037 282.167424 
L 353.149897 308.282688 
L 353.531828 296.632656 
L 354.677618 283.956912 
L 355.059548 282.590928 
L 355.441478 275.175936 
L 356.205339 273.080448 
L 357.351129 292.671792 
L 357.73306 284.691312 
L 358.11499 279.322848 
L 358.49692 285.570144 
L 358.87885 278.018064 
L 360.024641 269.78544 
L 360.406571 274.933584 
L 360.788501 272.346048 
L 361.170431 278.625168 
L 361.552361 277.122096 
L 362.698152 279.854064 
L 363.080082 268.933536 
L 363.462012 271.077984 
L 363.843943 275.763456 
L 364.225873 275.126976 
L 365.371663 279.104976 
L 365.753593 281.178432 
L 366.135524 279.95688 
L 366.899384 278.81856 
L 368.045175 279.645984 
L 368.427105 274.451328 
L 369.572895 264.37536 
L 370.718686 265.44024 
L 371.100616 263.66544 
L 371.482546 270.53208 
L 371.864476 269.778096 
L 372.246407 274.52232 
L 373.392197 279.440352 
L 373.774127 279.065808 
L 374.156057 286.206624 
L 374.537988 285.932448 
L 374.919918 284.370624 
L 376.447639 295.362144 
L 376.829569 286.789248 
L 377.211499 289.908 
L 377.593429 288.81864 
L 378.73922 287.687664 
L 379.12115 285.450192 
L 379.50308 278.502768 
L 379.88501 285.589728 
L 380.26694 290.304576 
L 381.412731 290.412288 
L 381.794661 287.212752 
L 382.176591 288.750096 
L 382.558522 285.41592 
L 382.940452 279.84672 
L 384.086242 279.530928 
L 384.468172 289.991232 
L 384.850103 288.380448 
L 385.232033 288.025488 
L 385.613963 290.069568 
L 387.141684 299.291184 
L 387.523614 299.474784 
L 389.433265 310.512816 
L 389.815195 303.215328 
L 390.197125 305.23248 
L 390.579055 308.187216 
L 390.960986 312.529968 
L 392.106776 320.919264 
L 392.488706 322.018416 
L 392.870637 317.969424 
L 393.252567 325.39176 
L 393.634497 325.188576 
L 394.780287 326.865456 
L 395.162218 316.32192 
L 395.544148 315.891072 
L 395.926078 308.698848 
L 396.308008 307.27656 
L 397.453799 307.927728 
L 397.835729 301.996224 
L 398.217659 298.02312 
L 398.599589 300.547008 
L 398.98152 304.341408 
L 400.12731 291.029184 
L 400.50924 295.141824 
L 400.89117 293.242176 
L 401.273101 288.595872 
L 401.655031 292.737888 
L 402.800821 299.692656 
L 403.564682 293.927616 
L 403.946612 288.223776 
L 404.328542 286.236 
L 405.474333 287.954496 
L 405.856263 292.83336 
L 406.238193 290.480832 
L 406.620123 282.794112 
L 408.147844 282.262896 
L 408.529774 286.4808 
L 409.293634 280.65456 
L 409.675565 279.60192 
L 410.821355 288.710928 
L 411.203285 284.380416 
L 411.585216 285.97896 
L 411.967146 283.929984 
L 412.349076 280.426896 
L 413.876797 283.136832 
L 414.258727 278.612928 
L 414.640657 278.816112 
L 415.022587 277.663104 
L 416.168378 270.387648 
L 416.550308 271.22976 
L 416.932238 267.379056 
L 417.314168 270.350928 
L 417.696099 265.004496 
L 418.841889 269.898048 
L 419.223819 270.11592 
L 419.605749 276.096384 
L 419.98768 273.856464 
L 420.36961 276.350976 
L 421.5154 269.782992 
L 421.897331 270.169776 
L 422.279261 271.310544 
L 422.661191 275.016816 
L 423.043121 275.3424 
L 424.570842 269.631216 
L 424.952772 273.858912 
L 425.716632 267.474528 
L 426.862423 261.665424 
L 427.244353 261.207648 
L 427.626283 264.385152 
L 428.008214 261.765792 
L 428.390144 262.345968 
L 429.535934 262.578528 
L 429.917864 261.773136 
L 430.299795 262.57608 
L 430.681725 261.170928 
L 431.063655 260.847792 
L 432.209446 266.353344 
L 432.591376 269.229744 
L 432.973306 269.538192 
L 433.355236 267.663024 
L 433.737166 266.962896 
L 434.882957 273.863808 
L 435.264887 273.35952 
L 435.646817 271.929888 
L 436.028747 267.200352 
L 436.410678 267.53328 
L 437.556468 265.494096 
L 437.938398 267.430464 
L 438.320329 266.448816 
L 438.702259 273.036384 
L 440.229979 272.473344 
L 440.61191 276.803856 
L 440.99384 277.163712 
L 441.37577 276.399936 
L 441.7577 277.268976 
L 442.903491 271.90296 
L 443.285421 270.730368 
L 443.667351 264.159936 
L 444.049281 262.186848 
L 444.431211 262.274976 
L 445.958932 258.798816 
L 446.340862 258.923664 
L 446.722793 253.484208 
L 447.104723 252.757152 
L 448.250513 252.042336 
L 448.632444 252.669024 
L 449.014374 253.76328 
L 449.396304 250.9236 
L 449.778234 250.744896 
L 450.924025 247.036176 
L 451.305955 246.29688 
L 451.687885 247.014144 
L 452.069815 248.394816 
L 452.451745 245.114496 
L 453.597536 245.94192 
L 453.979466 249.06312 
L 454.361396 246.257712 
L 454.743326 244.563696 
L 456.271047 252.642096 
L 456.652977 250.208784 
L 457.034908 248.546592 
L 457.416838 245.875824 
L 457.798768 241.283376 
L 458.944559 241.420464 
L 459.326489 240.8256 
L 459.708419 240.796224 
L 460.090349 240.096096 
L 460.472279 240.597936 
L 461.61807 242.632224 
L 462 248.159808 
L 462.38193 248.9652 
L 462.76386 246.886848 
L 463.145791 243.66528 
L 464.673511 241.464528 
L 465.055441 239.511024 
L 465.437372 236.874528 
L 465.819302 237.219696 
L 466.965092 235.601568 
L 467.347023 234.796176 
L 467.728953 230.847552 
L 468.110883 231.648048 
L 468.492813 230.96016 
L 469.638604 231.851232 
L 470.020534 230.137632 
L 470.784394 235.249056 
L 471.166324 236.815776 
L 472.312115 232.262496 
L 472.694045 232.842672 
L 473.075975 233.706816 
L 473.457906 240.37272 
L 473.839836 241.508592 
L 474.985626 237.775392 
L 475.367556 234.284544 
L 475.749487 233.584416 
L 476.513347 230.179248 
L 477.659138 229.028688 
L 478.041068 229.763088 
L 478.422998 225.153504 
L 478.804928 224.042112 
L 479.186858 226.215936 
L 480.332649 223.711632 
L 480.714579 225.388512 
L 481.096509 227.75328 
L 481.478439 224.935632 
L 481.86037 228.19392 
L 483.38809 232.157232 
L 483.770021 237.244176 
L 484.151951 231.496272 
L 484.533881 238.820688 
L 486.061602 236.563632 
L 486.443532 236.2968 
L 486.825462 231.368976 
L 487.207392 230.71536 
L 488.353183 224.894016 
L 488.735113 224.911152 
L 489.117043 223.564752 
L 489.498973 226.323648 
L 489.880903 224.796096 
L 491.026694 220.92336 
L 491.408624 220.673664 
L 491.790554 220.80096 
L 492.172485 224.44848 
L 492.554415 225.310176 
L 493.700205 221.672448 
L 494.082136 221.81688 
L 494.464066 220.597776 
L 495.227926 225.283248 
L 496.373717 224.269776 
L 496.755647 221.031072 
L 497.137577 220.938048 
L 497.519507 223.219584 
L 497.901437 221.736096 
L 499.047228 222.4044 
L 499.429158 225.173088 
L 499.811088 224.19144 
L 500.193018 222.62472 
L 500.574949 221.630832 
L 501.720739 219.745872 
L 502.102669 221.258736 
L 502.4846 220.952736 
L 502.86653 224.159616 
L 503.24846 222.595344 
L 505.540041 216.717696 
L 507.067762 216.399456 
L 507.449692 216.78624 
L 507.831622 216.732384 
L 508.213552 219.50352 
L 510.123203 214.259904 
L 510.505133 214.108128 
L 511.268994 212.188896 
L 512.414784 211.699296 
L 512.796715 214.333344 
L 513.178645 212.017536 
L 513.560575 211.336992 
L 513.942505 214.379856 
L 515.470226 210.903696 
L 515.852156 213.887808 
L 516.616016 225.217152 
L 517.761807 223.988256 
L 518.143737 225.116784 
L 518.525667 223.812 
L 519.289528 229.596624 
L 520.435318 225.846288 
L 520.817248 222.387264 
L 521.199179 223.865856 
L 521.581109 232.230672 
L 521.963039 231.476688 
L 523.10883 233.790048 
L 523.49076 230.416704 
L 523.87269 231.001776 
L 524.25462 228.470544 
L 524.63655 229.195152 
L 526.546201 223.319952 
L 526.928131 221.5476 
L 527.310062 220.955184 
L 528.455852 221.239152 
L 528.837782 224.52192 
L 529.219713 221.917248 
L 529.601643 222.480288 
L 529.983573 222.100848 
L 531.511294 218.717712 
L 531.893224 218.600208 
L 532.275154 217.576944 
L 532.657084 213.72624 
L 533.802875 213.7752 
L 534.184805 213.29784 
L 534.948665 210.901248 
L 535.330595 210.962448 
L 536.476386 210.835152 
L 537.240246 206.991792 
L 537.622177 207.084816 
L 538.004107 208.53648 
L 539.149897 207.089712 
L 539.531828 205.043184 
L 539.913758 206.622144 
L 540.295688 207.109296 
L 540.677618 206.898768 
L 541.823409 205.275744 
L 542.205339 205.263504 
L 542.587269 206.203536 
L 542.969199 204.08112 
L 544.87885 201.305088 
L 545.26078 203.01624 
L 545.64271 202.039488 
L 546.024641 200.098224 
L 547.552361 199.38096 
L 547.934292 196.11288 
L 548.316222 195.863184 
L 548.698152 200.646576 
L 549.843943 199.327104 
L 550.225873 196.964784 
L 550.607803 197.265888 
L 550.989733 196.597584 
L 551.371663 194.489856 
L 552.517454 195.77016 
L 552.899384 202.707792 
L 553.281314 200.835072 
L 553.663244 197.060256 
L 554.045175 201.978288 
L 555.190965 198.166752 
L 555.572895 205.18272 
L 555.954825 207.075024 
L 556.336756 216.30888 
L 556.718686 220.536576 
L 557.864476 208.578096 
L 558.246407 209.542608 
L 558.628337 205.655184 
L 559.010267 209.138688 
L 559.392197 214.465536 
L 560.537988 214.157088 
L 560.919918 218.10816 
L 561.301848 219.51576 
L 561.683778 230.154768 
L 562.065708 226.213488 
L 563.211499 229.65048 
L 563.593429 229.557456 
L 563.975359 231.04584 
L 564.35729 222.450912 
L 564.73922 225.792432 
L 566.26694 230.370192 
L 566.648871 223.596576 
L 567.030801 222.507216 
L 567.412731 231.797376 
L 568.558522 235.324944 
L 568.940452 232.5024 
L 569.322382 234.047088 
L 569.704312 226.421568 
L 570.086242 225.25632 
L 571.232033 225.738576 
L 571.613963 219.471696 
L 571.995893 219.623472 
L 572.759754 218.913552 
L 573.905544 219.96864 
L 574.287474 224.348112 
L 574.669405 225.148608 
L 575.051335 229.640688 
L 575.433265 228.889152 
L 576.579055 229.425264 
L 576.960986 237.584448 
L 577.342916 240.162192 
L 577.724846 240.979824 
L 578.106776 242.152416 
L 579.634497 240.810912 
L 580.016427 232.925904 
L 580.780287 228.595392 
L 581.926078 228.402 
L 582.308008 224.340768 
L 582.689938 224.382384 
L 583.071869 224.061696 
L 583.453799 231.797376 
L 584.599589 230.238 
L 584.98152 227.244096 
L 585.36345 230.644368 
L 585.74538 224.749584 
L 586.12731 222.548832 
L 587.273101 219.525552 
L 587.655031 219.811968 
L 588.036961 221.699376 
L 588.418891 222.825456 
L 588.800821 222.80832 
L 589.946612 216.869472 
L 590.328542 218.191392 
L 590.710472 216.531648 
L 591.092402 216.881712 
L 591.474333 217.902528 
L 592.620123 216.397008 
L 593.002053 218.044512 
L 593.383984 225.777744 
L 594.147844 228.2796 
L 595.293634 228.247776 
L 595.675565 225.026208 
L 596.057495 224.629632 
L 596.439425 229.165776 
L 596.821355 230.130288 
L 597.967146 231.190272 
L 598.349076 234.982224 
L 598.731006 234.135216 
L 599.112936 236.120544 
L 599.494867 231.868368 
L 600.640657 235.704384 
L 601.022587 235.604016 
L 601.404517 228.025008 
L 601.786448 225.62352 
L 602.168378 222.095952 
L 603.696099 225.197568 
L 604.459959 222.176736 
L 604.841889 220.86216 
L 605.98768 217.83888 
L 606.36961 218.03472 
L 606.75154 217.062864 
L 607.13347 217.163232 
L 607.5154 216.935568 
L 608.661191 212.744592 
L 609.043121 213.461856 
L 609.425051 214.808256 
L 609.806982 217.121616 
L 610.188912 211.285584 
L 611.334702 212.879232 
L 611.716632 211.52304 
L 612.480493 213.11424 
L 612.862423 211.880448 
L 614.008214 214.135056 
L 614.390144 208.3284 
L 614.772074 208.519344 
L 615.154004 208.986912 
L 615.535934 207.25128 
L 616.681725 207.209664 
L 617.063655 206.120304 
L 617.445585 204.08112 
L 617.827515 205.131312 
L 618.209446 204.548688 
L 619.355236 202.462992 
L 619.737166 207.06768 
L 620.119097 204.063984 
L 620.882957 202.862016 
L 622.028747 202.240224 
L 622.410678 202.235328 
L 622.792608 203.01624 
L 623.174538 202.690656 
L 623.556468 202.817952 
L 624.702259 202.543776 
L 625.084189 200.294064 
L 625.466119 199.219392 
L 625.848049 193.564512 
L 626.229979 192.39192 
L 627.37577 193.0284 
L 627.7577 195.43968 
L 628.13963 194.139792 
L 628.521561 195.405408 
L 628.903491 198.913392 
L 630.049281 199.2708 
L 630.431211 204.022368 
L 630.813142 203.961168 
L 631.195072 199.530288 
L 631.577002 198.786096 
L 632.722793 199.248768 
L 633.104723 203.437296 
L 633.486653 199.12392 
L 634.250513 201.31488 
L 635.396304 201.716352 
L 635.778234 203.48136 
L 636.160164 197.234064 
L 636.542094 193.449456 
L 636.924025 192.670992 
L 638.069815 193.060224 
L 638.451745 192.906 
L 639.215606 190.6416 
L 639.597536 188.83008 
L 640.743326 188.815392 
L 641.125257 188.538768 
L 641.507187 190.095696 
L 641.889117 188.225424 
L 643.416838 187.194816 
L 643.798768 185.35392 
L 644.180698 184.315968 
L 644.562628 184.822704 
L 646.090349 184.634208 
L 646.854209 184.085856 
L 647.23614 184.550976 
L 647.61807 184.609728 
L 648.76386 181.126224 
L 648.76386 181.126224 
" style="fill:none;stroke:#000000;stroke-linecap:square;stroke-width:1.5;"/>
   </g>
   <g id="patch_3">
    <path d="M 90 345.6 
L 90 51.84 
" style="fill:none;stroke:#000000;stroke-linecap:square;stroke-linejoin:miter;stroke-width:0.8;"/>
   </g>
   <g id="patch_4">
    <path d="M 648 345.6 
L 648 51.84 
" style="fill:none;stroke:#000000;stroke-linecap:square;stroke-linejoin:miter;stroke-width:0.8;"/>
   </g>
   <g id="patch_5">
    <path d="M 90 345.6 
L 648 345.6 
" style="fill:none;stroke:#000000;stroke-linecap:square;stroke-linejoin:miter;stroke-width:0.8;"/>
   </g>
   <g id="patch_6">
    <path d="M 90 51.84 
L 648 51.84 
" style="fill:none;stroke:#000000;stroke-linecap:square;stroke-linejoin:miter;stroke-width:0.8;"/>
   </g>
   <g id="patch_7">
    <path d="M 200.086242 74.675668 
Q 200.086242 81.198252 200.086242 87.720835 
L 204.086242 87.720835 
Q 201.086242 93.720634 198.086242 99.720432 
Q 195.086242 93.720634 192.086242 87.720835 
L 196.086242 87.720835 
Q 196.086242 81.198252 196.086242 74.675668 
L 200.086242 74.675668 
z
" style="stroke:#000000;stroke-linecap:round;"/>
   </g>
   <g id="text_17">
    <!-- Peak of bull market -->
    <defs>
     <path d="M 19.671875 64.796875 
L 19.671875 37.40625 
L 32.078125 37.40625 
Q 38.96875 37.40625 42.71875 40.96875 
Q 46.484375 44.53125 46.484375 51.125 
Q 46.484375 57.671875 42.71875 61.234375 
Q 38.96875 64.796875 32.078125 64.796875 
z
M 9.8125 72.90625 
L 32.078125 72.90625 
Q 44.34375 72.90625 50.609375 67.359375 
Q 56.890625 61.8125 56.890625 51.125 
Q 56.890625 40.328125 50.609375 34.8125 
Q 44.34375 29.296875 32.078125 29.296875 
L 19.671875 29.296875 
L 19.671875 0 
L 9.8125 0 
z
" id="DejaVuSans-50"/>
     <path d="M 56.203125 29.59375 
L 56.203125 25.203125 
L 14.890625 25.203125 
Q 15.484375 15.921875 20.484375 11.0625 
Q 25.484375 6.203125 34.421875 6.203125 
Q 39.59375 6.203125 44.453125 7.46875 
Q 49.3125 8.734375 54.109375 11.28125 
L 54.109375 2.78125 
Q 49.265625 0.734375 44.1875 -0.34375 
Q 39.109375 -1.421875 33.890625 -1.421875 
Q 20.796875 -1.421875 13.15625 6.1875 
Q 5.515625 13.8125 5.515625 26.8125 
Q 5.515625 40.234375 12.765625 48.109375 
Q 20.015625 56 32.328125 56 
Q 43.359375 56 49.78125 48.890625 
Q 56.203125 41.796875 56.203125 29.59375 
z
M 47.21875 32.234375 
Q 47.125 39.59375 43.09375 43.984375 
Q 39.0625 48.390625 32.421875 48.390625 
Q 24.90625 48.390625 20.390625 44.140625 
Q 15.875 39.890625 15.1875 32.171875 
z
" id="DejaVuSans-65"/>
     <path d="M 34.28125 27.484375 
Q 23.390625 27.484375 19.1875 25 
Q 14.984375 22.515625 14.984375 16.5 
Q 14.984375 11.71875 18.140625 8.90625 
Q 21.296875 6.109375 26.703125 6.109375 
Q 34.1875 6.109375 38.703125 11.40625 
Q 43.21875 16.703125 43.21875 25.484375 
L 43.21875 27.484375 
z
M 52.203125 31.203125 
L 52.203125 0 
L 43.21875 0 
L 43.21875 8.296875 
Q 40.140625 3.328125 35.546875 0.953125 
Q 30.953125 -1.421875 24.3125 -1.421875 
Q 15.921875 -1.421875 10.953125 3.296875 
Q 6 8.015625 6 15.921875 
Q 6 25.140625 12.171875 29.828125 
Q 18.359375 34.515625 30.609375 34.515625 
L 43.21875 34.515625 
L 43.21875 35.40625 
Q 43.21875 41.609375 39.140625 45 
Q 35.0625 48.390625 27.6875 48.390625 
Q 23 48.390625 18.546875 47.265625 
Q 14.109375 46.140625 10.015625 43.890625 
L 10.015625 52.203125 
Q 14.9375 54.109375 19.578125 55.046875 
Q 24.21875 56 28.609375 56 
Q 40.484375 56 46.34375 49.84375 
Q 52.203125 43.703125 52.203125 31.203125 
z
" id="DejaVuSans-61"/>
     <path d="M 9.078125 75.984375 
L 18.109375 75.984375 
L 18.109375 31.109375 
L 44.921875 54.6875 
L 56.390625 54.6875 
L 27.390625 29.109375 
L 57.625 0 
L 45.90625 0 
L 18.109375 26.703125 
L 18.109375 0 
L 9.078125 0 
z
" id="DejaVuSans-6b"/>
     <path id="DejaVuSans-20"/>
     <path d="M 30.609375 48.390625 
Q 23.390625 48.390625 19.1875 42.75 
Q 14.984375 37.109375 14.984375 27.296875 
Q 14.984375 17.484375 19.15625 11.84375 
Q 23.34375 6.203125 30.609375 6.203125 
Q 37.796875 6.203125 41.984375 11.859375 
Q 46.1875 17.53125 46.1875 27.296875 
Q 46.1875 37.015625 41.984375 42.703125 
Q 37.796875 48.390625 30.609375 48.390625 
z
M 30.609375 56 
Q 42.328125 56 49.015625 48.375 
Q 55.71875 40.765625 55.71875 27.296875 
Q 55.71875 13.875 49.015625 6.21875 
Q 42.328125 -1.421875 30.609375 -1.421875 
Q 18.84375 -1.421875 12.171875 6.21875 
Q 5.515625 13.875 5.515625 27.296875 
Q 5.515625 40.765625 12.171875 48.375 
Q 18.84375 56 30.609375 56 
z
" id="DejaVuSans-6f"/>
     <path d="M 37.109375 75.984375 
L 37.109375 68.5 
L 28.515625 68.5 
Q 23.6875 68.5 21.796875 66.546875 
Q 19.921875 64.59375 19.921875 59.515625 
L 19.921875 54.6875 
L 34.71875 54.6875 
L 34.71875 47.703125 
L 19.921875 47.703125 
L 19.921875 0 
L 10.890625 0 
L 10.890625 47.703125 
L 2.296875 47.703125 
L 2.296875 54.6875 
L 10.890625 54.6875 
L 10.890625 58.5 
Q 10.890625 67.625 15.140625 71.796875 
Q 19.390625 75.984375 28.609375 75.984375 
z
" id="DejaVuSans-66"/>
     <path d="M 48.6875 27.296875 
Q 48.6875 37.203125 44.609375 42.84375 
Q 40.53125 48.484375 33.40625 48.484375 
Q 26.265625 48.484375 22.1875 42.84375 
Q 18.109375 37.203125 18.109375 27.296875 
Q 18.109375 17.390625 22.1875 11.75 
Q 26.265625 6.109375 33.40625 6.109375 
Q 40.53125 6.109375 44.609375 11.75 
Q 48.6875 17.390625 48.6875 27.296875 
z
M 18.109375 46.390625 
Q 20.953125 51.265625 25.265625 53.625 
Q 29.59375 56 35.59375 56 
Q 45.5625 56 51.78125 48.09375 
Q 58.015625 40.1875 58.015625 27.296875 
Q 58.015625 14.40625 51.78125 6.484375 
Q 45.5625 -1.421875 35.59375 -1.421875 
Q 29.59375 -1.421875 25.265625 0.953125 
Q 20.953125 3.328125 18.109375 8.203125 
L 18.109375 0 
L 9.078125 0 
L 9.078125 75.984375 
L 18.109375 75.984375 
z
" id="DejaVuSans-62"/>
     <path d="M 8.5 21.578125 
L 8.5 54.6875 
L 17.484375 54.6875 
L 17.484375 21.921875 
Q 17.484375 14.15625 20.5 10.265625 
Q 23.53125 6.390625 29.59375 6.390625 
Q 36.859375 6.390625 41.078125 11.03125 
Q 45.3125 15.671875 45.3125 23.6875 
L 45.3125 54.6875 
L 54.296875 54.6875 
L 54.296875 0 
L 45.3125 0 
L 45.3125 8.40625 
Q 42.046875 3.421875 37.71875 1 
Q 33.40625 -1.421875 27.6875 -1.421875 
Q 18.265625 -1.421875 13.375 4.4375 
Q 8.5 10.296875 8.5 21.578125 
z
M 31.109375 56 
z
" id="DejaVuSans-75"/>
     <path d="M 9.421875 75.984375 
L 18.40625 75.984375 
L 18.40625 0 
L 9.421875 0 
z
" id="DejaVuSans-6c"/>
     <path d="M 52 44.1875 
Q 55.375 50.25 60.0625 53.125 
Q 64.75 56 71.09375 56 
Q 79.640625 56 84.28125 50.015625 
Q 88.921875 44.046875 88.921875 33.015625 
L 88.921875 0 
L 79.890625 0 
L 79.890625 32.71875 
Q 79.890625 40.578125 77.09375 44.375 
Q 74.3125 48.1875 68.609375 48.1875 
Q 61.625 48.1875 57.5625 43.546875 
Q 53.515625 38.921875 53.515625 30.90625 
L 53.515625 0 
L 44.484375 0 
L 44.484375 32.71875 
Q 44.484375 40.625 41.703125 44.40625 
Q 38.921875 48.1875 33.109375 48.1875 
Q 26.21875 48.1875 22.15625 43.53125 
Q 18.109375 38.875 18.109375 30.90625 
L 18.109375 0 
L 9.078125 0 
L 9.078125 54.6875 
L 18.109375 54.6875 
L 18.109375 46.1875 
Q 21.1875 51.21875 25.484375 53.609375 
Q 29.78125 56 35.6875 56 
Q 41.65625 56 45.828125 52.96875 
Q 50 49.953125 52 44.1875 
z
" id="DejaVuSans-6d"/>
     <path d="M 41.109375 46.296875 
Q 39.59375 47.171875 37.8125 47.578125 
Q 36.03125 48 33.890625 48 
Q 26.265625 48 22.1875 43.046875 
Q 18.109375 38.09375 18.109375 28.8125 
L 18.109375 0 
L 9.078125 0 
L 9.078125 54.6875 
L 18.109375 54.6875 
L 18.109375 46.1875 
Q 20.953125 51.171875 25.484375 53.578125 
Q 30.03125 56 36.53125 56 
Q 37.453125 56 38.578125 55.875 
Q 39.703125 55.765625 41.0625 55.515625 
z
" id="DejaVuSans-72"/>
     <path d="M 18.3125 70.21875 
L 18.3125 54.6875 
L 36.8125 54.6875 
L 36.8125 47.703125 
L 18.3125 47.703125 
L 18.3125 18.015625 
Q 18.3125 11.328125 20.140625 9.421875 
Q 21.96875 7.515625 27.59375 7.515625 
L 36.8125 7.515625 
L 36.8125 0 
L 27.59375 0 
Q 17.1875 0 13.234375 3.875 
Q 9.28125 7.765625 9.28125 18.015625 
L 9.28125 47.703125 
L 2.6875 47.703125 
L 2.6875 54.6875 
L 9.28125 54.6875 
L 9.28125 70.21875 
z
" id="DejaVuSans-74"/>
    </defs>
    <g transform="translate(198.086242 70.598869)scale(0.1 -0.1)">
     <use xlink:href="#DejaVuSans-50"/>
     <use x="60.255859" xlink:href="#DejaVuSans-65"/>
     <use x="121.779297" xlink:href="#DejaVuSans-61"/>
     <use x="183.058594" xlink:href="#DejaVuSans-6b"/>
     <use x="240.96875" xlink:href="#DejaVuSans-20"/>
     <use x="272.755859" xlink:href="#DejaVuSans-6f"/>
     <use x="333.9375" xlink:href="#DejaVuSans-66"/>
     <use x="369.142578" xlink:href="#DejaVuSans-20"/>
     <use x="400.929688" xlink:href="#DejaVuSans-62"/>
     <use x="464.40625" xlink:href="#DejaVuSans-75"/>
     <use x="527.785156" xlink:href="#DejaVuSans-6c"/>
     <use x="555.568359" xlink:href="#DejaVuSans-6c"/>
     <use x="583.351562" xlink:href="#DejaVuSans-20"/>
     <use x="615.138672" xlink:href="#DejaVuSans-6d"/>
     <use x="712.550781" xlink:href="#DejaVuSans-61"/>
     <use x="773.830078" xlink:href="#DejaVuSans-72"/>
     <use x="814.943359" xlink:href="#DejaVuSans-6b"/>
     <use x="872.806641" xlink:href="#DejaVuSans-65"/>
     <use x="934.330078" xlink:href="#DejaVuSans-74"/>
    </g>
   </g>
   <g id="patch_8">
    <path d="M 258.521561 134.80834 
Q 258.521561 141.330924 258.521561 147.853507 
L 262.521561 147.853507 
Q 259.521561 153.853306 256.521561 159.853104 
Q 253.521561 153.853306 250.521561 147.853507 
L 254.521561 147.853507 
Q 254.521561 141.330924 254.521561 134.80834 
L 258.521561 134.80834 
z
" style="stroke:#000000;stroke-linecap:round;"/>
   </g>
   <g id="text_18">
    <!-- Bear Stearns Fails -->
    <defs>
     <path d="M 19.671875 34.8125 
L 19.671875 8.109375 
L 35.5 8.109375 
Q 43.453125 8.109375 47.28125 11.40625 
Q 51.125 14.703125 51.125 21.484375 
Q 51.125 28.328125 47.28125 31.5625 
Q 43.453125 34.8125 35.5 34.8125 
z
M 19.671875 64.796875 
L 19.671875 42.828125 
L 34.28125 42.828125 
Q 41.5 42.828125 45.03125 45.53125 
Q 48.578125 48.25 48.578125 53.8125 
Q 48.578125 59.328125 45.03125 62.0625 
Q 41.5 64.796875 34.28125 64.796875 
z
M 9.8125 72.90625 
L 35.015625 72.90625 
Q 46.296875 72.90625 52.390625 68.21875 
Q 58.5 63.53125 58.5 54.890625 
Q 58.5 48.1875 55.375 44.234375 
Q 52.25 40.28125 46.1875 39.3125 
Q 53.46875 37.75 57.5 32.78125 
Q 61.53125 27.828125 61.53125 20.40625 
Q 61.53125 10.640625 54.890625 5.3125 
Q 48.25 0 35.984375 0 
L 9.8125 0 
z
" id="DejaVuSans-42"/>
     <path d="M 53.515625 70.515625 
L 53.515625 60.890625 
Q 47.90625 63.578125 42.921875 64.890625 
Q 37.9375 66.21875 33.296875 66.21875 
Q 25.25 66.21875 20.875 63.09375 
Q 16.5 59.96875 16.5 54.203125 
Q 16.5 49.359375 19.40625 46.890625 
Q 22.3125 44.4375 30.421875 42.921875 
L 36.375 41.703125 
Q 47.40625 39.59375 52.65625 34.296875 
Q 57.90625 29 57.90625 20.125 
Q 57.90625 9.515625 50.796875 4.046875 
Q 43.703125 -1.421875 29.984375 -1.421875 
Q 24.8125 -1.421875 18.96875 -0.25 
Q 13.140625 0.921875 6.890625 3.21875 
L 6.890625 13.375 
Q 12.890625 10.015625 18.65625 8.296875 
Q 24.421875 6.59375 29.984375 6.59375 
Q 38.421875 6.59375 43.015625 9.90625 
Q 47.609375 13.234375 47.609375 19.390625 
Q 47.609375 24.75 44.3125 27.78125 
Q 41.015625 30.8125 33.5 32.328125 
L 27.484375 33.5 
Q 16.453125 35.6875 11.515625 40.375 
Q 6.59375 45.0625 6.59375 53.421875 
Q 6.59375 63.09375 13.40625 68.65625 
Q 20.21875 74.21875 32.171875 74.21875 
Q 37.3125 74.21875 42.625 73.28125 
Q 47.953125 72.359375 53.515625 70.515625 
z
" id="DejaVuSans-53"/>
     <path d="M 54.890625 33.015625 
L 54.890625 0 
L 45.90625 0 
L 45.90625 32.71875 
Q 45.90625 40.484375 42.875 44.328125 
Q 39.84375 48.1875 33.796875 48.1875 
Q 26.515625 48.1875 22.3125 43.546875 
Q 18.109375 38.921875 18.109375 30.90625 
L 18.109375 0 
L 9.078125 0 
L 9.078125 54.6875 
L 18.109375 54.6875 
L 18.109375 46.1875 
Q 21.34375 51.125 25.703125 53.5625 
Q 30.078125 56 35.796875 56 
Q 45.21875 56 50.046875 50.171875 
Q 54.890625 44.34375 54.890625 33.015625 
z
" id="DejaVuSans-6e"/>
     <path d="M 44.28125 53.078125 
L 44.28125 44.578125 
Q 40.484375 46.53125 36.375 47.5 
Q 32.28125 48.484375 27.875 48.484375 
Q 21.1875 48.484375 17.84375 46.4375 
Q 14.5 44.390625 14.5 40.28125 
Q 14.5 37.15625 16.890625 35.375 
Q 19.28125 33.59375 26.515625 31.984375 
L 29.59375 31.296875 
Q 39.15625 29.25 43.1875 25.515625 
Q 47.21875 21.78125 47.21875 15.09375 
Q 47.21875 7.46875 41.1875 3.015625 
Q 35.15625 -1.421875 24.609375 -1.421875 
Q 20.21875 -1.421875 15.453125 -0.5625 
Q 10.6875 0.296875 5.421875 2 
L 5.421875 11.28125 
Q 10.40625 8.6875 15.234375 7.390625 
Q 20.0625 6.109375 24.8125 6.109375 
Q 31.15625 6.109375 34.5625 8.28125 
Q 37.984375 10.453125 37.984375 14.40625 
Q 37.984375 18.0625 35.515625 20.015625 
Q 33.0625 21.96875 24.703125 23.78125 
L 21.578125 24.515625 
Q 13.234375 26.265625 9.515625 29.90625 
Q 5.8125 33.546875 5.8125 39.890625 
Q 5.8125 47.609375 11.28125 51.796875 
Q 16.75 56 26.8125 56 
Q 31.78125 56 36.171875 55.265625 
Q 40.578125 54.546875 44.28125 53.078125 
z
" id="DejaVuSans-73"/>
     <path d="M 9.8125 72.90625 
L 51.703125 72.90625 
L 51.703125 64.59375 
L 19.671875 64.59375 
L 19.671875 43.109375 
L 48.578125 43.109375 
L 48.578125 34.8125 
L 19.671875 34.8125 
L 19.671875 0 
L 9.8125 0 
z
" id="DejaVuSans-46"/>
     <path d="M 9.421875 54.6875 
L 18.40625 54.6875 
L 18.40625 0 
L 9.421875 0 
z
M 9.421875 75.984375 
L 18.40625 75.984375 
L 18.40625 64.59375 
L 9.421875 64.59375 
z
" id="DejaVuSans-69"/>
    </defs>
    <g transform="translate(256.521561 130.731541)scale(0.1 -0.1)">
     <use xlink:href="#DejaVuSans-42"/>
     <use x="68.603516" xlink:href="#DejaVuSans-65"/>
     <use x="130.126953" xlink:href="#DejaVuSans-61"/>
     <use x="191.40625" xlink:href="#DejaVuSans-72"/>
     <use x="232.519531" xlink:href="#DejaVuSans-20"/>
     <use x="264.306641" xlink:href="#DejaVuSans-53"/>
     <use x="327.783203" xlink:href="#DejaVuSans-74"/>
     <use x="366.992188" xlink:href="#DejaVuSans-65"/>
     <use x="428.515625" xlink:href="#DejaVuSans-61"/>
     <use x="489.794922" xlink:href="#DejaVuSans-72"/>
     <use x="530.892578" xlink:href="#DejaVuSans-6e"/>
     <use x="594.271484" xlink:href="#DejaVuSans-73"/>
     <use x="646.371094" xlink:href="#DejaVuSans-20"/>
     <use x="678.158203" xlink:href="#DejaVuSans-46"/>
     <use x="735.537109" xlink:href="#DejaVuSans-61"/>
     <use x="796.816406" xlink:href="#DejaVuSans-69"/>
     <use x="824.599609" xlink:href="#DejaVuSans-6c"/>
     <use x="852.382812" xlink:href="#DejaVuSans-73"/>
    </g>
   </g>
   <g id="patch_9">
    <path d="M 329.942505 163.222276 
Q 329.942505 169.74486 329.942505 176.267443 
L 333.942505 176.267443 
Q 330.942505 182.267242 327.942505 188.26704 
Q 324.942505 182.267242 321.942505 176.267443 
L 325.942505 176.267443 
Q 325.942505 169.74486 325.942505 163.222276 
L 329.942505 163.222276 
z
" style="stroke:#000000;stroke-linecap:round;"/>
   </g>
   <g id="text_19">
    <!-- Lehman Bankruptcy -->
    <defs>
     <path d="M 9.8125 72.90625 
L 19.671875 72.90625 
L 19.671875 8.296875 
L 55.171875 8.296875 
L 55.171875 0 
L 9.8125 0 
z
" id="DejaVuSans-4c"/>
     <path d="M 54.890625 33.015625 
L 54.890625 0 
L 45.90625 0 
L 45.90625 32.71875 
Q 45.90625 40.484375 42.875 44.328125 
Q 39.84375 48.1875 33.796875 48.1875 
Q 26.515625 48.1875 22.3125 43.546875 
Q 18.109375 38.921875 18.109375 30.90625 
L 18.109375 0 
L 9.078125 0 
L 9.078125 75.984375 
L 18.109375 75.984375 
L 18.109375 46.1875 
Q 21.34375 51.125 25.703125 53.5625 
Q 30.078125 56 35.796875 56 
Q 45.21875 56 50.046875 50.171875 
Q 54.890625 44.34375 54.890625 33.015625 
z
" id="DejaVuSans-68"/>
     <path d="M 18.109375 8.203125 
L 18.109375 -20.796875 
L 9.078125 -20.796875 
L 9.078125 54.6875 
L 18.109375 54.6875 
L 18.109375 46.390625 
Q 20.953125 51.265625 25.265625 53.625 
Q 29.59375 56 35.59375 56 
Q 45.5625 56 51.78125 48.09375 
Q 58.015625 40.1875 58.015625 27.296875 
Q 58.015625 14.40625 51.78125 6.484375 
Q 45.5625 -1.421875 35.59375 -1.421875 
Q 29.59375 -1.421875 25.265625 0.953125 
Q 20.953125 3.328125 18.109375 8.203125 
z
M 48.6875 27.296875 
Q 48.6875 37.203125 44.609375 42.84375 
Q 40.53125 48.484375 33.40625 48.484375 
Q 26.265625 48.484375 22.1875 42.84375 
Q 18.109375 37.203125 18.109375 27.296875 
Q 18.109375 17.390625 22.1875 11.75 
Q 26.265625 6.109375 33.40625 6.109375 
Q 40.53125 6.109375 44.609375 11.75 
Q 48.6875 17.390625 48.6875 27.296875 
z
" id="DejaVuSans-70"/>
     <path d="M 48.78125 52.59375 
L 48.78125 44.1875 
Q 44.96875 46.296875 41.140625 47.34375 
Q 37.3125 48.390625 33.40625 48.390625 
Q 24.65625 48.390625 19.8125 42.84375 
Q 14.984375 37.3125 14.984375 27.296875 
Q 14.984375 17.28125 19.8125 11.734375 
Q 24.65625 6.203125 33.40625 6.203125 
Q 37.3125 6.203125 41.140625 7.25 
Q 44.96875 8.296875 48.78125 10.40625 
L 48.78125 2.09375 
Q 45.015625 0.34375 40.984375 -0.53125 
Q 36.96875 -1.421875 32.421875 -1.421875 
Q 20.0625 -1.421875 12.78125 6.34375 
Q 5.515625 14.109375 5.515625 27.296875 
Q 5.515625 40.671875 12.859375 48.328125 
Q 20.21875 56 33.015625 56 
Q 37.15625 56 41.109375 55.140625 
Q 45.0625 54.296875 48.78125 52.59375 
z
" id="DejaVuSans-63"/>
     <path d="M 32.171875 -5.078125 
Q 28.375 -14.84375 24.75 -17.8125 
Q 21.140625 -20.796875 15.09375 -20.796875 
L 7.90625 -20.796875 
L 7.90625 -13.28125 
L 13.1875 -13.28125 
Q 16.890625 -13.28125 18.9375 -11.515625 
Q 21 -9.765625 23.484375 -3.21875 
L 25.09375 0.875 
L 2.984375 54.6875 
L 12.5 54.6875 
L 29.59375 11.921875 
L 46.6875 54.6875 
L 56.203125 54.6875 
z
" id="DejaVuSans-79"/>
    </defs>
    <g transform="translate(327.942505 159.145477)scale(0.1 -0.1)">
     <use xlink:href="#DejaVuSans-4c"/>
     <use x="55.697266" xlink:href="#DejaVuSans-65"/>
     <use x="117.220703" xlink:href="#DejaVuSans-68"/>
     <use x="180.599609" xlink:href="#DejaVuSans-6d"/>
     <use x="278.011719" xlink:href="#DejaVuSans-61"/>
     <use x="339.291016" xlink:href="#DejaVuSans-6e"/>
     <use x="402.669922" xlink:href="#DejaVuSans-20"/>
     <use x="434.457031" xlink:href="#DejaVuSans-42"/>
     <use x="503.060547" xlink:href="#DejaVuSans-61"/>
     <use x="564.339844" xlink:href="#DejaVuSans-6e"/>
     <use x="627.71875" xlink:href="#DejaVuSans-6b"/>
     <use x="685.628906" xlink:href="#DejaVuSans-72"/>
     <use x="726.742188" xlink:href="#DejaVuSans-75"/>
     <use x="790.121094" xlink:href="#DejaVuSans-70"/>
     <use x="853.597656" xlink:href="#DejaVuSans-74"/>
     <use x="892.806641" xlink:href="#DejaVuSans-63"/>
     <use x="947.787109" xlink:href="#DejaVuSans-79"/>
    </g>
   </g>
   <g id="text_20">
    <!-- Important dates in 2008-2009 financial crisis -->
    <defs>
     <path d="M 9.8125 72.90625 
L 19.671875 72.90625 
L 19.671875 0 
L 9.8125 0 
z
" id="DejaVuSans-49"/>
     <path d="M 45.40625 46.390625 
L 45.40625 75.984375 
L 54.390625 75.984375 
L 54.390625 0 
L 45.40625 0 
L 45.40625 8.203125 
Q 42.578125 3.328125 38.25 0.953125 
Q 33.9375 -1.421875 27.875 -1.421875 
Q 17.96875 -1.421875 11.734375 6.484375 
Q 5.515625 14.40625 5.515625 27.296875 
Q 5.515625 40.1875 11.734375 48.09375 
Q 17.96875 56 27.875 56 
Q 33.9375 56 38.25 53.625 
Q 42.578125 51.265625 45.40625 46.390625 
z
M 14.796875 27.296875 
Q 14.796875 17.390625 18.875 11.75 
Q 22.953125 6.109375 30.078125 6.109375 
Q 37.203125 6.109375 41.296875 11.75 
Q 45.40625 17.390625 45.40625 27.296875 
Q 45.40625 37.203125 41.296875 42.84375 
Q 37.203125 48.484375 30.078125 48.484375 
Q 22.953125 48.484375 18.875 42.84375 
Q 14.796875 37.203125 14.796875 27.296875 
z
" id="DejaVuSans-64"/>
    </defs>
    <g transform="translate(234.169688 45.84)scale(0.12 -0.12)">
     <use xlink:href="#DejaVuSans-49"/>
     <use x="29.492188" xlink:href="#DejaVuSans-6d"/>
     <use x="126.904297" xlink:href="#DejaVuSans-70"/>
     <use x="190.380859" xlink:href="#DejaVuSans-6f"/>
     <use x="251.5625" xlink:href="#DejaVuSans-72"/>
     <use x="292.675781" xlink:href="#DejaVuSans-74"/>
     <use x="331.884766" xlink:href="#DejaVuSans-61"/>
     <use x="393.164062" xlink:href="#DejaVuSans-6e"/>
     <use x="456.542969" xlink:href="#DejaVuSans-74"/>
     <use x="495.751953" xlink:href="#DejaVuSans-20"/>
     <use x="527.539062" xlink:href="#DejaVuSans-64"/>
     <use x="591.015625" xlink:href="#DejaVuSans-61"/>
     <use x="652.294922" xlink:href="#DejaVuSans-74"/>
     <use x="691.503906" xlink:href="#DejaVuSans-65"/>
     <use x="753.027344" xlink:href="#DejaVuSans-73"/>
     <use x="805.126953" xlink:href="#DejaVuSans-20"/>
     <use x="836.914062" xlink:href="#DejaVuSans-69"/>
     <use x="864.697266" xlink:href="#DejaVuSans-6e"/>
     <use x="928.076172" xlink:href="#DejaVuSans-20"/>
     <use x="959.863281" xlink:href="#DejaVuSans-32"/>
     <use x="1023.486328" xlink:href="#DejaVuSans-30"/>
     <use x="1087.109375" xlink:href="#DejaVuSans-30"/>
     <use x="1150.732422" xlink:href="#DejaVuSans-38"/>
     <use x="1214.355469" xlink:href="#DejaVuSans-2d"/>
     <use x="1250.439453" xlink:href="#DejaVuSans-32"/>
     <use x="1314.0625" xlink:href="#DejaVuSans-30"/>
     <use x="1377.685547" xlink:href="#DejaVuSans-30"/>
     <use x="1441.308594" xlink:href="#DejaVuSans-39"/>
     <use x="1504.931641" xlink:href="#DejaVuSans-20"/>
     <use x="1536.71875" xlink:href="#DejaVuSans-66"/>
     <use x="1571.923828" xlink:href="#DejaVuSans-69"/>
     <use x="1599.707031" xlink:href="#DejaVuSans-6e"/>
     <use x="1663.085938" xlink:href="#DejaVuSans-61"/>
     <use x="1724.365234" xlink:href="#DejaVuSans-6e"/>
     <use x="1787.744141" xlink:href="#DejaVuSans-63"/>
     <use x="1842.724609" xlink:href="#DejaVuSans-69"/>
     <use x="1870.507812" xlink:href="#DejaVuSans-61"/>
     <use x="1931.787109" xlink:href="#DejaVuSans-6c"/>
     <use x="1959.570312" xlink:href="#DejaVuSans-20"/>
     <use x="1991.357422" xlink:href="#DejaVuSans-63"/>
     <use x="2046.337891" xlink:href="#DejaVuSans-72"/>
     <use x="2087.451172" xlink:href="#DejaVuSans-69"/>
     <use x="2115.234375" xlink:href="#DejaVuSans-73"/>
     <use x="2167.333984" xlink:href="#DejaVuSans-69"/>
     <use x="2195.117188" xlink:href="#DejaVuSans-73"/>
    </g>
   </g>
  </g>
 </g>
 <defs>
  <clipPath id="pe79e35d3c7">
   <rect height="293.76" width="558" x="90" y="51.84"/>
  </clipPath>
 </defs>
</svg>
